0
SECTION
2
HEADER
9
$INSUNITS
70
4
9
$ACADVER
1
AC1014
9
$HANDSEED
5
FFFF
0
ENDSEC
0
SECTION
2
TABLES
0
TABLE
2
VPORT
5
8
100
AcDbSymbolTable
0
ENDTAB
0
TABLE
2
LTYPE
5
5
100
AcDbSymbolTable
0
LTYPE
5
14
100
AcDbSymbolTableRecord
100
AcDbLinetypeTableRecord
2
BYBLOCK
70
0
0
LTYPE
5
15
100
AcDbSymbolTableRecord
100
AcDbLinetypeTableRecord
2
BYLAYER
70
0
0
ENDTAB
0
TABLE
2
LAYER
5
2
100
AcDbSymbolTable
70
2
0
LAYER
5
50
100
AcDbSymbolTableRecord
100
AcDbLayerTableRecord
2
0
70
0
6
CONTINUOUS
0
ENDTAB
0
TABLE
2
STYLE
5
3
100
AcDbSymbolTable
70
1
0
STYLE
5
11
100
AcDbSymbolTableRecord
100
AcDbTextStyleTableRecord
2
STANDARD
70
0
0
ENDTAB
0
TABLE
2
VIEW
5
6
100
AcDbSymbolTable
70
0
0
ENDTAB
0
TABLE
2
UCS
5
7
100
AcDbSymbolTable
70
0
0
ENDTAB
0
TABLE
2
APPID
5
9
100
AcDbSymbolTable
70
2
0
APPID
5
12
100
AcDbSymbolTableRecord
100
AcDbRegAppTableRecord
2
ACAD
70
0
0
ENDTAB
0
TABLE
2
DIMSTYLE
5
A
100
AcDbSymbolTable
70
1
0
ENDTAB
0
TABLE
2
BLOCK_RECORD
5
1
100
AcDbSymbolTable
70
1
0
BLOCK_RECORD
5
1F
100
AcDbSymbolTableRecord
100
AcDbBlockTableRecord
2
*MODEL_SPACE
0
BLOCK_RECORD
5
1B
100
AcDbSymbolTableRecord
100
AcDbBlockTableRecord
2
*PAPER_SPACE
0
ENDTAB
0
ENDSEC
0
SECTION
2
BLOCKS
0
BLOCK
5
20
100
AcDbEntity
100
AcDbBlockBegin
2
*MODEL_SPACE
0
ENDBLK
5
21
100
AcDbEntity
100
AcDbBlockEnd
0
BLOCK
5
1C
100
AcDbEntity
100
AcDbBlockBegin
2
*PAPER_SPACE
0
ENDBLK
5
1D
100
AcDbEntity
100
AcDbBlockEnd
0
ENDSEC
0
SECTION
2
ENTITIES
0
LWPOLYLINE
5
100
100
AcDbEntity
8
0
100
AcDbPolyline
90
20
70
1
43
0.0
10
223.49999999999983
20
0.14860153198235082
42
-0.41421356237309503
10
224.99999999999974
20
-1.3513984680175639
10
224.99999999999983
20
-433.35139846801758
42
-0.41421356237309503
10
223.49999999999983
20
-434.85139846801758
10
182.99999999999983
20
-434.85139846801758
42
0.41421356237309503
10
163.99999999999983
20
-453.85139846801763
10
163.9999999999998
20
-455.85139846801758
42
-0.41421356237309503
10
144.99999999999983
20
-474.85139846801758
10
-145.00000000000017
20
-474.85139846801758
42
-0.41421356237309503
10
-164.0000000000002
20
-455.85139846801758
10
-164.0000000000002
20
-453.85139846801763
42
0.41421356237309503
10
-183.00000000000017
20
-434.85139846801758
10
-223.5000000000002
20
-434.85139846801758
42
-0.41421356237309503
10
-225.00000000000017
20
-433.35139846801758
10
-225.00000000000017
20
-1.3513984680175639
42
-0.41421356237309503
10
-223.5000000000002
20
0.14860153198242188
10
-168.00000000000017
20
0.14860153198242188
10
-168.00000000000023
20
-14.851398468017578
42
0.99999999999999989
10
-153.00000000000017
20
-14.851398468017578
10
-153.00000000000023
20
0.14860153198242188
0
CIRCLE
5
101
100
AcDbEntity
8
0
100
AcDbCircle
10
1.8697851469588311e-13
20
-469.85139846801758
30
7.6451176411751476e-06
40
2.5
210
-3.944304526105059e-31
220
-5.4738221262687165e-47
230
-1
0
CIRCLE
5
102
100
AcDbEntity
8
0
100
AcDbCircle
10
-181.49999999999983
20
-398.35139846801758
30
7.6451176411751476e-06
40
2.5
210
-3.944304526105059e-31
220
-5.4738221262687165e-47
230
-1
0
CIRCLE
5
103
100
AcDbEntity
8
0
100
AcDbCircle
10
-181.49999999999983
20
-14.851398468017578
30
7.6451176411751476e-06
40
2.5
210
-3.944304526105059e-31
220
-5.4738221262687165e-47
230
-1
0
CIRCLE
5
104
100
AcDbEntity
8
0
100
AcDbCircle
10
181.5000000000002
20
-14.851398468017578
30
7.6451176411751476e-06
40
2.5
210
-3.944304526105059e-31
220
-5.4738221262687165e-47
230
-1
0
CIRCLE
5
105
100
AcDbEntity
8
0
100
AcDbCircle
10
181.5000000000002
20
-398.35139846801758
30
7.6451176411751476e-06
40
2.5
210
-3.944304526105059e-31
220
-5.4738221262687165e-47
230
-1
0
LWPOLYLINE
5
106
100
AcDbEntity
8
0
100
AcDbPolyline
90
20
70
1
43
0.0
10
223.49999999999983
20
0.1486015319823597
42
-0.41421356237309681
10
224.99999999999974
20
-1.3513984680175639
10
224.99999999999977
20
-433.35139846801752
42
-0.41421356237310197
10
223.49999999999983
20
-434.85139846801758
10
182.99999999999983
20
-434.85139846801763
42
0.41421356237309559
10
163.99999999999983
20
-453.85139846801763
10
163.99999999999977
20
-455.85139846801758
42
-0.41421356237309859
10
144.99999999999983
20
-474.85139846801758
10
-145.00000000000017
20
-474.85139846801758
42
-0.41421356237309637
10
-164.0000000000002
20
-455.85139846801769
10
-164.0000000000002
20
-453.85139846801763
42
0.41421356237309559
10
-183.00000000000017
20
-434.85139846801758
10
-223.5000000000002
20
-434.85139846801758
42
-0.41421356237310197
10
-225.00000000000017
20
-433.35139846801758
10
-225.00000000000023
20
-1.3513984680175641
42
-0.41421356237310536
10
-223.5000000000002
20
0.14860153198242188
10
-168.00000000000017
20
0.14860153198242188
10
-168.00000000000023
20
-14.851398468017578
42
0.99999999999999989
10
-153.00000000000017
20
-14.851398468017578
10
-153.00000000000023
20
0.14860153198242188
0
CIRCLE
5
107
100
AcDbEntity
8
0
100
AcDbCircle
10
-1.8697851469588311e-13
20
-469.85139846801758
30
0
40
2.5
210
0
220
0
230
1
0
CIRCLE
5
108
100
AcDbEntity
8
0
100
AcDbCircle
10
181.49999999999983
20
-398.35139846801758
30
0
40
2.5
210
0
220
0
230
1
0
CIRCLE
5
109
100
AcDbEntity
8
0
100
AcDbCircle
10
181.49999999999983
20
-14.851398468017578
30
0
40
2.5
210
0
220
0
230
1
0
CIRCLE
5
110
100
AcDbEntity
8
0
100
AcDbCircle
10
-181.5000000000002
20
-14.851398468017578
30
0
40
2.5
210
0
220
0
230
1
0
CIRCLE
5
111
100
AcDbEntity
8
0
100
AcDbCircle
10
-181.5000000000002
20
-398.35139846801758
30
0
40
2.5
210
0
220
0
230
1
0
ENDSEC
0
SECTION
2
OBJECTS
0
DICTIONARY
5
C
100
AcDbDictionary
3
ACAD_GROUP
350
D
3
ACAD_MLINESTYLE
350
17
0
DICTIONARY
5
D
100
AcDbDictionary
0
DICTIONARY
5
1A
330
C
100
AcDbDictionary
0
DICTIONARY
5
17
100
AcDbDictionary
0
ENDSEC
0
EOF
