0
SECTION
2
HEADER
9
$INSUNITS
70
4
9
$ACADVER
1
AC1014
9
$HANDSEED
5
FFFF
0
ENDSEC
0
SECTION
2
TABLES
0
TABLE
2
VPORT
5
8
100
AcDbSymbolTable
0
ENDTAB
0
TABLE
2
LTYPE
5
5
100
AcDbSymbolTable
0
LTYPE
5
14
100
AcDbSymbolTableRecord
100
AcDbLinetypeTableRecord
2
BYBLOCK
70
0
0
LTYPE
5
15
100
AcDbSymbolTableRecord
100
AcDbLinetypeTableRecord
2
BYLAYER
70
0
0
ENDTAB
0
TABLE
2
LAYER
5
2
100
AcDbSymbolTable
70
2
0
LAYER
5
50
100
AcDbSymbolTableRecord
100
AcDbLayerTableRecord
2
0
70
0
6
CONTINUOUS
0
ENDTAB
0
TABLE
2
STYLE
5
3
100
AcDbSymbolTable
70
1
0
STYLE
5
11
100
AcDbSymbolTableRecord
100
AcDbTextStyleTableRecord
2
STANDARD
70
0
0
ENDTAB
0
TABLE
2
VIEW
5
6
100
AcDbSymbolTable
70
0
0
ENDTAB
0
TABLE
2
UCS
5
7
100
AcDbSymbolTable
70
0
0
ENDTAB
0
TABLE
2
APPID
5
9
100
AcDbSymbolTable
70
2
0
APPID
5
12
100
AcDbSymbolTableRecord
100
AcDbRegAppTableRecord
2
ACAD
70
0
0
ENDTAB
0
TABLE
2
DIMSTYLE
5
A
100
AcDbSymbolTable
70
1
0
ENDTAB
0
TABLE
2
BLOCK_RECORD
5
1
100
AcDbSymbolTable
70
1
0
BLOCK_RECORD
5
1F
100
AcDbSymbolTableRecord
100
AcDbBlockTableRecord
2
*MODEL_SPACE
0
BLOCK_RECORD
5
1B
100
AcDbSymbolTableRecord
100
AcDbBlockTableRecord
2
*PAPER_SPACE
0
ENDTAB
0
ENDSEC
0
SECTION
2
BLOCKS
0
BLOCK
5
20
100
AcDbEntity
100
AcDbBlockBegin
2
*MODEL_SPACE
0
ENDBLK
5
21
100
AcDbEntity
100
AcDbBlockEnd
0
BLOCK
5
1C
100
AcDbEntity
100
AcDbBlockBegin
2
*PAPER_SPACE
0
ENDBLK
5
1D
100
AcDbEntity
100
AcDbBlockEnd
0
ENDSEC
0
SECTION
2
ENTITIES
0
LINE
5
100
100
AcDbEntity
8
0
100
AcDbLine
10
-386.52019500732371
20
-9.0467653548262206
30
4.0121875799492557e-06
11
-345.52019500732371
21
-9.046765354826114
31
4.0121875799492557e-06
0
LINE
5
101
100
AcDbEntity
8
0
100
AcDbLine
10
-345.52019500732371
20
-9.046765354826114
30
4.0121875799492557e-06
11
-345.52019500732371
21
-13.046765468482171
31
4.0475235513204311e-06
0
LINE
5
102
100
AcDbEntity
8
0
100
AcDbLine
10
-345.52019500732371
20
-13.046765468482171
30
4.0475235513204311e-06
11
-91.520195007323736
21
-13.046765468481532
31
4.0475235513204311e-06
0
LINE
5
103
100
AcDbEntity
8
0
100
AcDbLine
10
-91.520195007323736
20
-13.046765468481532
30
4.0475235513204311e-06
11
-91.520195007323736
21
-9.0467653548254745
31
4.0121875799492557e-06
0
LINE
5
104
100
AcDbEntity
8
0
100
AcDbLine
10
-91.520195007323736
20
-9.0467653548254745
30
4.0121875799492557e-06
11
-50.520195007323707
21
-9.0467653548253679
31
4.0121875799492557e-06
0
LINE
5
105
100
AcDbEntity
8
0
100
AcDbLine
10
-50.520195007323707
20
-9.0467653548253679
30
4.0121875799492557e-06
11
-50.520195007323707
21
-13.046765468481425
31
4.0475235513204311e-06
0
LINE
5
106
100
AcDbEntity
8
0
100
AcDbLine
10
-50.520195007323707
20
-13.046765468481425
30
4.0475235513204311e-06
11
-3.0201950073237072
21
-13.046765468481318
31
4.0475235513204311e-06
0
LINE
5
107
100
AcDbEntity
8
0
100
AcDbLine
10
-3.0201950073237072
20
-13.046765468481318
30
4.0475235513204311e-06
11
-3.0201950073238493
21
49.859225551345347
31
3.4918124874883105e-06
0
LINE
5
108
100
AcDbEntity
8
0
100
AcDbLine
10
-3.0201950073238493
20
49.859225551345347
30
3.4918124874883105e-06
11
35.479804992676094
21
72.087211546732732
31
3.2954506218318969e-06
0
ARC
5
109
100
AcDbEntity
8
0
100
AcDbCircle
10
33.979804992676087
20
74.685287831907473
30
3.6373456038290134e-06
40
3.000000063931247
210
-3.825230987317984e-09
220
6.6254946089775346e-09
230
1
100
AcDbArc
50
299.99999929505753
51
360
0
LINE
5
110
100
AcDbEntity
8
0
100
AcDbLine
10
36.979804992676151
20
74.685287831907402
30
3.2724992349297821e-06
11
36.979804992675582
21
271.2211918011435
31
1.5363024985504126e-06
0
ARC
5
111
100
AcDbEntity
8
0
100
AcDbCircle
10
33.979804992675575
20
271.22119180114339
30
1.5363024985504126e-06
40
3.0000000000000071
210
0
220
-0
230
1
100
AcDbArc
50
0
51
60.000000704941336
0
LINE
5
112
100
AcDbEntity
8
0
100
AcDbLine
10
35.479804992675845
20
273.81926808631846
30
1.5133511116482978e-06
11
-3.0201950073244888
21
296.0472540817052
31
1.3169892459918842e-06
0
LINE
5
113
100
AcDbEntity
8
0
100
AcDbLine
10
-3.0201950073244888
20
296.0472540817052
30
1.3169892459918842e-06
11
-3.0201950073246309
21
358.95324510153188
31
7.6127818215976362e-07
0
LINE
5
114
100
AcDbEntity
8
0
100
AcDbLine
10
-3.0201950073246309
20
358.95324510153188
30
7.6127818215976362e-07
11
-199.02019500732465
21
358.95324510153148
31
7.6127818215976362e-07
0
LINE
5
115
100
AcDbEntity
8
0
100
AcDbLine
10
-199.02019500732465
20
358.95324510153148
30
7.6127818215976362e-07
11
-199.02019500732465
21
355.95324501628937
31
7.8778016110447879e-07
0
LINE
5
116
100
AcDbEntity
8
0
100
AcDbLine
10
-199.02019500732465
20
355.95324501628937
30
7.8778016110447879e-07
11
-239.02019500732465
21
355.95324501628932
31
7.8778016110447879e-07
0
LINE
5
117
100
AcDbEntity
8
0
100
AcDbLine
10
-239.02019500732465
20
355.95324501628932
30
7.8778016110447879e-07
11
-239.02019500732465
21
358.95324510153131
31
7.6127818215976362e-07
0
LINE
5
118
100
AcDbEntity
8
0
100
AcDbLine
10
-239.02019500732465
20
358.95324510153131
30
7.6127818215976362e-07
11
-435.02019500732467
21
358.95324510153091
31
7.6127818215976362e-07
0
LINE
5
119
100
AcDbEntity
8
0
100
AcDbLine
10
-435.02019500732467
20
358.95324510153091
30
7.6127818215976362e-07
11
-435.02019500732467
21
354.45324497366784
31
8.0103115029928063e-07
0
ARC
5
120
100
AcDbEntity
8
0
100
AcDbCircle
10
-454.02019500732467
20
354.45324497366778
30
3.9322685190092905e-06
40
19.000000539866235
210
-3.30364691715106e-23
220
8.8339926721297582e-09
230
1
100
AcDbArc
50
-89.999999999999645
51
0
0
LINE
5
121
100
AcDbEntity
8
0
100
AcDbLine
10
-454.02019500732456
20
335.4532444338015
30
9.6887701583892039e-07
11
-456.02019500732462
21
335.45324443380139
31
9.6887701583892039e-07
0
ARC
5
122
100
AcDbEntity
8
0
100
AcDbCircle
10
-456.02019500732456
20
316.45324389393522
30
3.9322685190092999e-06
40
19.000000539866164
210
-3.3036469171510847e-23
220
8.8339926721297913e-09
230
1
100
AcDbArc
50
90.000000000000185
51
180
0
LINE
5
123
100
AcDbEntity
8
0
100
AcDbLine
10
-475.02019500732456
20
316.45324389393517
30
1.1367228813785601e-06
11
-475.02019500732388
21
29.453235739113097
31
3.6720788521016345e-06
0
ARC
5
124
100
AcDbEntity
8
0
100
AcDbCircle
10
-456.02019500732382
20
29.453235739113151
30
3.6720788521016345e-06
40
19.000000000000057
210
0
220
0
230
1
100
AcDbArc
50
180
51
270
0
LINE
5
125
100
AcDbEntity
8
0
100
AcDbLine
10
-456.02019500732382
20
10.453235199246897
30
3.8399247176412743e-06
11
-454.02019500732376
21
10.453235199246933
31
3.8399247176412743e-06
0
ARC
5
126
100
AcDbEntity
8
0
100
AcDbCircle
10
-454.02019500732371
20
-8.5467653406193733
30
4.0077705831809141e-06
40
18.999999999999915
210
0
220
-0
230
1
100
AcDbArc
50
0
51
90.000000000000185
0
LINE
5
127
100
AcDbEntity
8
0
100
AcDbLine
10
-435.02019500732382
20
-8.5467653406193378
30
4.0077705831809141e-06
11
-435.02019500732376
21
-13.046765468482384
31
4.0475235513204311e-06
0
LINE
5
128
100
AcDbEntity
8
0
100
AcDbLine
10
-435.02019500732376
20
-13.046765468482384
30
4.0475235513204311e-06
11
-386.52019500732371
21
-13.046765468482278
31
4.0475235513204311e-06
0
LINE
5
129
100
AcDbEntity
8
0
100
AcDbLine
10
-386.52019500732371
20
-13.046765468482278
30
4.0475235513204311e-06
11
-386.52019500732371
21
-9.0467653548262206
31
4.0121875799492557e-06
0
LWPOLYLINE
5
130
100
AcDbEntity
8
0
100
AcDbPolyline
90
30
70
1
43
0.0
10
-345.52019500732365
20
-9.0467650977711891
10
-386.52019500732365
20
-9.0467650977712921
10
-386.52019500732371
20
-13.046765097771299
10
-435.02019500732376
20
-13.04676509777142
10
-435.02019500732376
20
-8.5467650977714165
42
0.41421356237309598
10
-454.02019500732376
20
10.453234902228527
10
-456.02019500732376
20
10.453234902228541
42
-0.41421356237309531
10
-475.02019500732382
20
29.453234902228473
10
-475.0201950073245
20
316.45323490222853
42
-0.41421356237309559
10
-456.02019500732456
20
335.45323490222859
10
-454.02019500732456
20
335.4532349022287
42
0.41421356237309392
10
-435.02019500732456
20
354.45323490222859
10
-435.02019500732456
20
358.95323490222859
10
-239.02019500732462
20
358.95323490222904
10
-239.02019500732462
20
355.9532349022291
10
-199.02019500732462
20
355.95323490222927
10
-199.02019500732462
20
358.95323490222916
10
-3.0201950073246091
20
358.95323490222961
10
-3.0201950073244355
20
296.04724566981469
10
35.479804992675831
20
273.81926030601409
42
-0.26794919243109111
10
36.979804992675625
20
271.221184094661
10
36.979804992675852
20
74.685285709798634
42
-0.26794919243109611
10
35.479804992676151
20
72.087209498445745
10
-3.0201950073238275
20
49.859224134644649
10
-3.0201950073236716
20
-13.046765097770344
10
-50.520195007323665
20
-13.046765097770461
10
-50.520195007323693
20
-9.046765097770443
10
-91.520195007323707
20
-9.046765097770546
10
-91.520195007323721
20
-13.046765097770576
10
-345.52019500732371
20
-13.046765097771207
0
ENDSEC
0
SECTION
2
OBJECTS
0
DICTIONARY
5
C
100
AcDbDictionary
3
ACAD_GROUP
350
D
3
ACAD_MLINESTYLE
350
17
0
DICTIONARY
5
D
100
AcDbDictionary
0
DICTIONARY
5
1A
330
C
100
AcDbDictionary
0
DICTIONARY
5
17
100
AcDbDictionary
0
ENDSEC
0
EOF
