0
SECTION
2
HEADER
9
$INSUNITS
70
4
9
$ACADVER
1
AC1014
9
$HANDSEED
5
FFFF
0
ENDSEC
0
SECTION
2
TABLES
0
TABLE
2
VPORT
5
8
100
AcDbSymbolTable
0
ENDTAB
0
TABLE
2
LTYPE
5
5
100
AcDbSymbolTable
0
LTYPE
5
14
100
AcDbSymbolTableRecord
100
AcDbLinetypeTableRecord
2
BYBLOCK
70
0
0
LTYPE
5
15
100
AcDbSymbolTableRecord
100
AcDbLinetypeTableRecord
2
BYLAYER
70
0
0
ENDTAB
0
TABLE
2
LAYER
5
2
100
AcDbSymbolTable
70
2
0
LAYER
5
50
100
AcDbSymbolTableRecord
100
AcDbLayerTableRecord
2
0
70
0
6
CONTINUOUS
0
ENDTAB
0
TABLE
2
STYLE
5
3
100
AcDbSymbolTable
70
1
0
STYLE
5
11
100
AcDbSymbolTableRecord
100
AcDbTextStyleTableRecord
2
STANDARD
70
0
0
ENDTAB
0
TABLE
2
VIEW
5
6
100
AcDbSymbolTable
70
0
0
ENDTAB
0
TABLE
2
UCS
5
7
100
AcDbSymbolTable
70
0
0
ENDTAB
0
TABLE
2
APPID
5
9
100
AcDbSymbolTable
70
2
0
APPID
5
12
100
AcDbSymbolTableRecord
100
AcDbRegAppTableRecord
2
ACAD
70
0
0
ENDTAB
0
TABLE
2
DIMSTYLE
5
A
100
AcDbSymbolTable
70
1
0
ENDTAB
0
TABLE
2
BLOCK_RECORD
5
1
100
AcDbSymbolTable
70
1
0
BLOCK_RECORD
5
1F
100
AcDbSymbolTableRecord
100
AcDbBlockTableRecord
2
*MODEL_SPACE
0
BLOCK_RECORD
5
1B
100
AcDbSymbolTableRecord
100
AcDbBlockTableRecord
2
*PAPER_SPACE
0
ENDTAB
0
ENDSEC
0
SECTION
2
BLOCKS
0
BLOCK
5
20
100
AcDbEntity
100
AcDbBlockBegin
2
*MODEL_SPACE
0
ENDBLK
5
21
100
AcDbEntity
100
AcDbBlockEnd
0
BLOCK
5
1C
100
AcDbEntity
100
AcDbBlockBegin
2
*PAPER_SPACE
0
ENDBLK
5
1D
100
AcDbEntity
100
AcDbBlockEnd
0
ENDSEC
0
SECTION
2
ENTITIES
0
LWPOLYLINE
5
100
100
AcDbEntity
8
0
100
AcDbPolyline
90
16
70
1
43
0.0
10
435.00000000000057
20
-239.14669740572575
42
-0.41421356237309503
10
433.00000000000057
20
-241.14669740572572
10
2.0000000000005613
20
-241.14669740572572
42
-0.41421356237309503
10
5.6843418860808015e-13
20
-239.14669740572575
10
5.6843418860808015e-13
20
238.85330259427431
42
-0.41421356237309503
10
2.0000000000005969
20
240.85330259427428
10
433.00000000000057
20
240.85330259427434
42
-0.41421356237309503
10
435.00000000000057
20
238.85330259427431
10
435.00000000000057
20
196.35902180445629
42
0.41568370174082897
10
454.09531803183552
20
177.35926089878132
10
456.11429062304956
20
177.34316187398278
42
-0.41245280781588334
10
475.00000000000057
20
158.34350562305332
10
475.00000000000045
20
-158.63690043450373
42
-0.41252337858460303
10
456.10970719220563
20
-177.63658370375876
10
454.07806800130857
20
-177.65099835606279
42
0.41541753046403168
10
435.00000000000057
20
-196.65083797083776
0
LWPOLYLINE
5
101
100
AcDbEntity
8
0
100
AcDbPolyline
90
4
70
1
43
0.0
10
320.00000000000057
20
-227.76669740572572
42
-0.99999999999999989
10
320.00000000000057
20
-234.92669740572575
10
307.00000000000057
20
-234.92669740572575
42
-0.99999999999999989
10
307.00000000000057
20
-227.76669740572572
0
LWPOLYLINE
5
102
100
AcDbEntity
8
0
100
AcDbPolyline
90
4
70
1
43
0.0
10
123.30000000000057
20
-227.76669740572572
42
-0.99999999999999989
10
123.30000000000057
20
-234.92669740572575
10
70.000000000000568
20
-234.92669740572575
42
-0.99999999999999989
10
70.000000000000568
20
-227.76669740572572
0
LWPOLYLINE
5
103
100
AcDbEntity
8
0
100
AcDbPolyline
90
4
70
1
43
0.0
10
381.00000000000057
20
-227.76669740572572
42
-0.99999999999999989
10
381.00000000000057
20
-234.92669740572575
10
368.00000000000057
20
-234.92669740572575
42
-0.99999999999999989
10
368.00000000000057
20
-227.76669740572572
0
CIRCLE
5
104
100
AcDbEntity
8
0
100
AcDbCircle
10
-420.50000000000057
20
231.0533025942743
30
-2.2721877712683636e-08
40
2.2999999999999998
210
-7.8886090522101181e-30
220
1.1093356479670479e-31
230
-1
0
CIRCLE
5
105
100
AcDbEntity
8
0
100
AcDbCircle
10
-14.700000000000557
20
231.0533025942743
30
-2.2721877712683636e-08
40
2.2999999999999998
210
-7.8886090522101181e-30
220
1.1093356479670479e-31
230
-1
0
CIRCLE
5
106
100
AcDbEntity
8
0
100
AcDbCircle
10
-420.50000000000057
20
-231.34669740572573
30
-2.2721877712683636e-08
40
2.2999999999999998
210
-7.8886090522101181e-30
220
1.1093356479670479e-31
230
-1
0
CIRCLE
5
107
100
AcDbEntity
8
0
100
AcDbCircle
10
-401.00000000000057
20
-80.146697405725703
30
-2.2721877712683636e-08
40
2.2999999999999998
210
-7.8886090522101181e-30
220
1.1093356479670479e-31
230
-1
0
CIRCLE
5
108
100
AcDbEntity
8
0
100
AcDbCircle
10
-14.700000000000557
20
7.3533025942743002
30
-2.2721877712683636e-08
40
2.2999999999999998
210
-7.8886090522101181e-30
220
1.1093356479670479e-31
230
-1
0
CIRCLE
5
109
100
AcDbEntity
8
0
100
AcDbCircle
10
-218.00000000000045
20
231.0533025942743
30
-2.2721877712683636e-08
40
2.2999999999999998
210
-7.8886090522101181e-30
220
1.1093356479670479e-31
230
-1
0
CIRCLE
5
110
100
AcDbEntity
8
0
100
AcDbCircle
10
-470.2000000000005
20
-0.14669740572568454
30
-2.2721877712683636e-08
40
2.2999999999999901
210
-7.8886090522101181e-30
220
1.1093356479670479e-31
230
-1
0
CIRCLE
5
111
100
AcDbEntity
8
0
100
AcDbCircle
10
-218.00000000000054
20
-231.34669740572573
30
-2.2721877712683636e-08
40
2.2999999999999998
210
-7.8886090522101181e-30
220
1.1093356479670479e-31
230
-1
0
CIRCLE
5
112
100
AcDbEntity
8
0
100
AcDbCircle
10
-401.00000000000057
20
79.853302594274297
30
-2.2721877712683636e-08
40
2.2999999999999998
210
-7.8886090522101181e-30
220
1.1093356479670479e-31
230
-1
0
CIRCLE
5
113
100
AcDbEntity
8
0
100
AcDbCircle
10
-14.700000000000557
20
-231.34669740572573
30
-2.2721877712683636e-08
40
2.2999999999999998
210
-7.8886090522101181e-30
220
1.1093356479670479e-31
230
-1
0
LWPOLYLINE
5
114
100
AcDbEntity
8
0
100
AcDbPolyline
90
16
70
1
43
0.0
10
435.00000000000057
20
-239.14669740572575
42
-0.41421356237311585
10
433.00000000000057
20
-241.14669740572572
10
2.0000000000005618
20
-241.14669740572572
42
-0.41421356237309437
10
5.6843418860808005e-13
20
-239.14669740572575
10
5.6510351953420468e-13
20
238.85330259427431
42
-0.41421356237309037
10
2.0000000000005258
20
240.85330259427428
10
433.00000000000057
20
240.85330259427434
42
-0.41421356237311585
10
435.00000000000057
20
238.85330259427431
10
435.00000000000063
20
196.35902180445629
42
0.41568370174083119
10
454.09531803183552
20
177.35926089878132
10
456.11429062304956
20
177.34316187398269
42
-0.41245280781588245
10
475.00000000000057
20
158.34350562305332
10
475.00000000000034
20
-158.63690043450373
42
-0.41252337858460386
10
456.10970719220563
20
-177.63658370375876
10
454.07806800130862
20
-177.65099835606279
42
0.4154175304640349
10
435.00000000000057
20
-196.65083797083776
0
LWPOLYLINE
5
115
100
AcDbEntity
8
0
100
AcDbPolyline
90
4
70
1
43
0.0
10
320.00000000000057
20
-227.76669740572572
42
-0.99999999999999989
10
320.00000000000057
20
-234.92669740572575
10
307.00000000000057
20
-234.92669740572575
42
-0.99999999999999989
10
307.00000000000057
20
-227.76669740572572
0
CIRCLE
5
116
100
AcDbEntity
8
0
100
AcDbCircle
10
420.50000000000057
20
231.0533025942743
30
0
40
2.2999999999999998
210
0
220
0
230
1
0
LWPOLYLINE
5
117
100
AcDbEntity
8
0
100
AcDbPolyline
90
4
70
1
43
0.0
10
123.30000000000057
20
-227.76669740572572
42
-0.99999999999999989
10
123.30000000000057
20
-234.92669740572575
10
70.000000000000568
20
-234.92669740572575
42
-0.99999999999999989
10
70.000000000000568
20
-227.76669740572572
0
LWPOLYLINE
5
118
100
AcDbEntity
8
0
100
AcDbPolyline
90
4
70
1
43
0.0
10
381.00000000000057
20
-227.76669740572572
42
-0.99999999999999989
10
381.00000000000057
20
-234.92669740572575
10
368.00000000000057
20
-234.92669740572575
42
-0.99999999999999989
10
368.00000000000057
20
-227.76669740572572
0
CIRCLE
5
119
100
AcDbEntity
8
0
100
AcDbCircle
10
14.700000000000557
20
231.0533025942743
30
0
40
2.2999999999999998
210
0
220
0
230
1
0
CIRCLE
5
120
100
AcDbEntity
8
0
100
AcDbCircle
10
420.50000000000057
20
-231.34669740572573
30
0
40
2.2999999999999998
210
0
220
0
230
1
0
CIRCLE
5
121
100
AcDbEntity
8
0
100
AcDbCircle
10
401.00000000000057
20
-80.146697405725703
30
0
40
2.2999999999999998
210
0
220
0
230
1
0
CIRCLE
5
122
100
AcDbEntity
8
0
100
AcDbCircle
10
14.700000000000557
20
7.3533025942743002
30
0
40
2.2999999999999998
210
0
220
0
230
1
0
CIRCLE
5
123
100
AcDbEntity
8
0
100
AcDbCircle
10
218.00000000000045
20
231.0533025942743
30
0
40
2.2999999999999998
210
0
220
0
230
1
0
CIRCLE
5
124
100
AcDbEntity
8
0
100
AcDbCircle
10
470.2000000000005
20
-0.14669740572568454
30
0
40
2.2999999999999901
210
-1.4012984643248174e-45
220
2.2454038243245648e-76
230
1
0
CIRCLE
5
125
100
AcDbEntity
8
0
100
AcDbCircle
10
218.00000000000054
20
-231.34669740572573
30
0
40
2.2999999999999998
210
0
220
0
230
1
0
CIRCLE
5
126
100
AcDbEntity
8
0
100
AcDbCircle
10
401.00000000000057
20
79.853302594274297
30
0
40
2.2999999999999998
210
0
220
0
230
1
0
CIRCLE
5
127
100
AcDbEntity
8
0
100
AcDbCircle
10
14.700000000000557
20
-231.34669740572573
30
0
40
2.2999999999999998
210
0
220
0
230
1
0
ENDSEC
0
SECTION
2
OBJECTS
0
DICTIONARY
5
C
100
AcDbDictionary
3
ACAD_GROUP
350
D
3
ACAD_MLINESTYLE
350
17
0
DICTIONARY
5
D
100
AcDbDictionary
0
DICTIONARY
5
1A
330
C
100
AcDbDictionary
0
DICTIONARY
5
17
100
AcDbDictionary
0
ENDSEC
0
EOF
